<?xml version="1.0" encoding="utf-8"?>
<!-- Generator: Adobe Illustrator 16.0.0, SVG Export Plug-In . SVG Version: 6.00 Build 0)  -->
<!DOCTYPE svg PUBLIC "-//W3C//DTD SVG 1.1//EN" "http://www.w3.org/Graphics/SVG/1.1/DTD/svg11.dtd">
<svg version="1.1" id="Layer_3" xmlns="http://www.w3.org/2000/svg" xmlns:xlink="http://www.w3.org/1999/xlink" x="0px" y="0px"
	 width="142.333px" height="142.596px" viewBox="0 0 142.333 142.596" enable-background="new 0 0 142.333 142.596"
	 xml:space="preserve">
<path fill="#05E535" d="M71.349,1C32.659,1,1.182,32.477,1.182,71.167c0,38.688,31.477,70.167,70.167,70.167
	c38.689,0,70.166-31.479,70.166-70.167C141.515,32.477,110.039,1,71.349,1z M71.349,136.199c-35.859,0-65.034-29.175-65.034-65.032
	c0-35.859,29.174-65.033,65.034-65.033c35.858,0,65.035,29.174,65.035,65.033C136.384,107.026,107.208,136.199,71.349,136.199z"/>
<path fill-rule="evenodd" clip-rule="evenodd" fill="#05E535" d="M73.392,74.698c-5.292-0.224-10.586-0.385-15.873-0.69
	c-5.65-0.326-11.286-0.86-16.894-1.637c-1.938-0.268-3.546-1.29-4.919-2.661c-1.838-1.834-2.778-4.099-3.119-6.645
	c-0.558-4.17,0.405-8.054,2.246-11.76c2.173-4.374,5.343-7.952,9.04-11.079c5.244-4.434,11.23-7.428,17.901-9.056
	c3.13-0.764,6.314-1.197,9.531-1.158c5.491,0.068,10.804,1.125,15.887,3.233c6.352,2.635,11.876,6.452,16.388,11.663
	c2.862,3.305,4.994,7.035,6.09,11.295c0.824,3.204,0.855,6.408-0.288,9.56c-1.305,3.6-3.814,5.934-7.528,6.842
	c-1.762,0.433-3.579,0.674-5.386,0.873c-2.595,0.283-5.198,0.512-7.805,0.648c-3.831,0.2-7.667,0.31-11.502,0.433
	c-1.254,0.041-2.511,0.007-3.765,0.007C73.395,74.611,73.393,74.655,73.392,74.698z"/>
<path fill-rule="evenodd" clip-rule="evenodd" fill="#05E535" d="M56.501,78.741c1.803,0,3.567-0.014,5.332,0.002
	c7.63,0.073,15.261,0.155,22.891,0.234c0.395,0.004,0.79-0.005,1.181,0.038c0.13,0.015,0.316,0.151,0.351,0.27
	c1.309,4.516,2.89,8.957,3.808,13.585c0.688,3.468,0.897,6.96,0.622,10.49c-0.118,1.519-0.229,3.022-0.747,4.465
	c-0.82,2.289-2.165,4.177-4.191,5.562c-1.14,0.778-2.442,1.079-3.751,1.364c-3.018,0.657-6.085,0.642-9.148,0.656
	c-2.524,0.014-5.049,0.004-7.572-0.053c-2.239-0.05-4.432-0.389-6.556-1.16c-3-1.09-4.83-3.244-5.83-6.199
	c-0.929-2.74-1.05-5.565-0.976-8.425c0.131-5.017,1.251-9.846,2.691-14.619C55.193,83,55.79,81.05,56.384,79.1
	C56.425,78.962,56.473,78.828,56.501,78.741z"/>
</svg>
