<?xml version="1.0" encoding="utf-8"?>
<!-- Generator: Adobe Illustrator 16.0.0, SVG Export Plug-In . SVG Version: 6.00 Build 0)  -->
<!DOCTYPE svg PUBLIC "-//W3C//DTD SVG 1.1//EN" "http://www.w3.org/Graphics/SVG/1.1/DTD/svg11.dtd">
<svg version="1.1" id="Layer_3" xmlns="http://www.w3.org/2000/svg" xmlns:xlink="http://www.w3.org/1999/xlink" x="0px" y="0px"
	 width="142.333px" height="142.596px" viewBox="0 0 142.333 142.596" enable-background="new 0 0 142.333 142.596"
	 xml:space="preserve">
<g>
	<path fill="#05E535" d="M71.334,1C32.644,1,1.167,32.477,1.167,71.167c0,38.688,31.477,70.167,70.167,70.167
		S141.5,109.856,141.5,71.167C141.5,32.477,110.024,1,71.334,1z M71.334,136.199c-35.859,0-65.034-29.174-65.034-65.032
		c0-35.859,29.174-65.033,65.034-65.033c35.859,0,65.036,29.174,65.036,65.033S107.193,136.199,71.334,136.199z"/>
	<path fill="#05E535" d="M94.521,56.295c-0.196-0.192-0.427-0.357-0.683-0.566c0.242,7.937-3.371,13.178-10.723,15.942
		c6.982,5.97,11.016,13.436,11.221,22.665c0.215,9.275-3.444,16.911-10.519,22.982c3.306,1.515,5.132,4.044,5.563,7.647
		c0.338-0.196,0.621-0.346,0.885-0.519c4.082-2.581,7.58-5.804,10.418-9.708c6.416-8.821,8.997-18.725,7.947-29.531
		C107.534,73.845,102.738,64.216,94.521,56.295z"/>
	<path fill="#05E535" d="M49.897,83.266c1.645,1.175,3.592,1.956,5.469,2.756c0.83,0.354,1.835,0.486,2.742,0.429
		c2.294-0.153,3.778-1.409,4.696-3.556c1.943-4.549,4.007-9.046,6.06-13.549c0.287-0.63,0.268-0.979-0.258-1.494
		c-4.505-4.425-5.802-11.182-3.008-16.875c2.718-5.531,7.363-8.274,13.508-8.477c0.236,0,0.488-0.052,0.709,0.009
		c0.814,0.218,1.184-0.146,1.494-0.889c0.824-1.985,1.717-3.942,2.617-5.894c0.835-1.799,0.664-3.506-0.438-5.106
		c-0.338-0.491-0.313-0.848-0.081-1.351c1.282-2.813,2.551-5.635,3.797-8.463c0.713-1.617,0.389-3.403-0.973-4.282
		c-1.093-0.706-2.336-1.263-3.586-1.616c-1.582-0.447-3.17,0.467-3.885,2.032c-1.301,2.836-2.567,5.69-3.83,8.544
		c-0.204,0.457-0.411,0.735-0.993,0.807c-2.024,0.251-3.413,1.345-4.258,3.257c-3.47,7.83-6.996,15.637-10.499,23.449
		c-3.58,7.981-7.16,15.96-10.736,23.938C47.376,79.323,47.768,81.742,49.897,83.266z"/>
	<path fill="#05E535" d="M72.206,122.609c-2.145,0-4.265,0-6.553,0c1.654-3.972,3.245-7.808,4.866-11.697
		c-3.021-1.329-5.948-2.61-8.924-3.918c-0.401,0.859-0.757,1.626-1.138,2.438c-0.59-0.281-1.108-0.525-1.676-0.797
		c0.297-0.677,0.568-1.286,0.883-1.994c-8.86-4.059-17.653-8.087-26.536-12.154c-1.016,2.217-1.994,4.348-3.03,6.604
		c0.48,0.229,0.847,0.406,1.216,0.576c7.899,3.622,15.799,7.239,23.698,10.854c1.555,0.715,1.555,0.715,2.373-0.821
		c0.024-0.046,0.093-0.066,0.184-0.13c0.5,0.231,1.019,0.471,1.587,0.73c-1.145,2.541-2.25,4.998-3.39,7.532
		c-0.699-0.338-1.336-0.629-1.952-0.955c-0.155-0.087-0.303-0.29-0.342-0.469c-0.321-1.419-1.264-2.313-2.514-2.896
		c-4.437-2.06-8.871-4.119-13.349-6.085c-0.843-0.368-1.905-0.465-2.83-0.368c-1.801,0.197-2.616,1.864-1.64,3.396
		c0.513,0.799,1.314,1.573,2.164,1.981c4.411,2.112,8.858,4.145,13.339,6.104c0.842,0.369,1.955,0.572,2.813,0.352
		c1.407-0.368,2.32,0.378,3.442,0.817c-0.365,0.804-0.668,1.496-1,2.185c-0.458,0.938-0.343,1.843,0.409,2.507
		c0.762,0.674,1.61,1.325,2.533,1.72c5.175,2.189,10.614,2.487,16.279,2.184C71.628,127.779,71.395,125.215,72.206,122.609z"/>
	<path fill="#05E535" d="M66.293,57.303c-0.01,7.024,5.676,12.753,12.667,12.76c7.027,0.012,12.814-5.743,12.801-12.74
		c-0.01-7.019-5.705-12.728-12.698-12.728C71.965,44.593,66.301,50.228,66.293,57.303z M85.608,57.357
		c-0.016,3.61-2.999,6.562-6.626,6.551c-3.623-0.014-6.571-2.982-6.552-6.612c0.014-3.562,3.068-6.678,6.484-6.612
		C82.674,50.752,85.622,53.689,85.608,57.357z"/>
	<path fill="#05E535" d="M80.6,118.324c-4.1,0.056-7.26,3.213-7.237,7.229c0.019,4.003,3.222,7.185,7.216,7.176
		c3.979-0.008,7.178-3.243,7.162-7.237C87.726,121.537,84.477,118.276,80.6,118.324z"/>
	<path fill="#05E535" d="M54.135,94.275c0.457-1.052,0.901-2.11,1.443-3.116c0.167-0.315,0.707-0.741,0.923-0.667
		c1.155,0.395,1.349-0.421,1.665-1.149c0.457-1.069,0.431-1.168-0.646-1.652c-2.809-1.267-5.62-2.532-8.434-3.784
		c-1.778-0.793-1.782-0.785-2.52,1.009c-0.024,0.055-0.074,0.111-0.064,0.161c0.055,0.284,0.031,0.725,0.203,0.821
		c0.782,0.462,0.725,1.131,0.462,1.771c-0.458,1.113-1.012,2.188-1.531,3.275c-0.17,0.359-0.355,0.71-0.579,1.156
		c2.837,1.29,5.587,2.542,8.454,3.85C53.768,95.255,53.925,94.754,54.135,94.275z"/>
</g>
</svg>
