<?xml version="1.0" encoding="utf-8"?>
<!-- Generator: Adobe Illustrator 16.0.0, SVG Export Plug-In . SVG Version: 6.00 Build 0)  -->
<!DOCTYPE svg PUBLIC "-//W3C//DTD SVG 1.1//EN" "http://www.w3.org/Graphics/SVG/1.1/DTD/svg11.dtd">
<svg version="1.1" id="Layer_3" xmlns="http://www.w3.org/2000/svg" xmlns:xlink="http://www.w3.org/1999/xlink" x="0px" y="0px"
	 width="142.333px" height="142.596px" viewBox="0 0 142.333 142.596" enable-background="new 0 0 142.333 142.596"
	 xml:space="preserve">
<polygon fill="#F79420" points="130.911,105.961 70.644,140.755 10.378,105.961 10.378,36.372 70.644,1.577 130.911,36.372 "/>
<g>
	<polygon opacity="0.5" fill="#FFB04E" points="130.911,105.961 130.911,36.372 70.644,1.577 70.644,140.755 	"/>
</g>
<polygon fill="none" points="70.644,71.629 70.644,71.629 70.644,71.629 "/>
<polygon opacity="0.5" fill="#FFB04E" points="70.703,135.196 97.851,119.487 70.67,135.176 "/>
<polygon opacity="0.5" fill="#FFB04E" points="70.644,71.629 15.622,102.968 15.623,103.462 70.637,135.159 70.644,71.629 "/>
<polygon opacity="0.5" fill="#FFFFFF" points="125.88,40.169 125.697,40.061 125.697,40.273 "/>
<polygon opacity="0.5" fill="#FFFFFF" points="125.691,103.418 125.691,103.38 97.851,119.487 "/>
<polygon opacity="0.5" fill="#FFFFFF" points="70.637,135.196 70.67,135.176 70.637,135.159 "/>
<polygon opacity="0.5" fill="#FFFFFF" points="70.649,8.063 70.649,8.273 70.833,8.169 "/>
<polygon opacity="0.5" fill="#FFB04E" points="70.644,71.629 70.637,135.159 70.67,135.176 97.851,119.487 125.691,103.38 
	125.691,103.342 "/>
<polygon opacity="0.1" fill="#FFFFFF" points="70.644,71.629 70.637,135.159 70.67,135.176 97.851,119.487 125.691,103.38 
	125.691,103.342 "/>
<path fill="#FFFFFF" d="M106.884,87.206c-13.535,2.387-21.762,11.949-21.762,11.949c-2.278-19.521,12.654-30.005,12.654-30.005
	c-14.171,1.322-23.661,26.551-23.661,26.551l5.819-44.61h18.727l1.394-12.879H48.185l-1.708,13.31l18.976-0.199l-6.072,45.803
	c-6.548-16.628-21.158-24.795-21.158-24.795c13.662,18.424,13.567,29.08,13.567,29.08c-6.735-6.577-12.713-8.367-12.713-8.367
	c10.499,8.764,6.578,13.408,6.578,13.408h0.024l1.883,1.092l0.623-0.361l0.623,0.361l0.624-0.361l0.623,0.361l0.623-0.361
	l0.623,0.361l0.623-0.361l0.623,0.361l0.623-0.361l0.622,0.361l0.624-0.361l0.624,0.361l0.622-0.361l0.623,0.361l0.624-0.361
	l0.623,0.361l0.623-0.361l0.623,0.361l0.623-0.361l0.624,0.361l0.623-0.361l0.622,0.361l0.623-0.361l0.624,0.361l0.623-0.361
	l0.622,0.361l0.623-0.361l0.624,0.361l0.623-0.361l0.623,0.361l0.623-0.361l0.623,0.361l0.624-0.361l0.623,0.361l0.623-0.361
	l0.623,0.361l0.624-0.361l0.623,0.361l0.624-0.361l0.623,0.361l0.621-0.361l0.625,0.361l0.621-0.361l0.623,0.361l0.625-0.361
	l0.62,0.361l0.626-0.361l0.621,0.361l0.623-0.361l0.622,0.361l0.624-0.361l0.624,0.361l0.624-0.361l0.622,0.361l0.623-0.361
	l0.621,0.361l0.626-0.361l0.62,0.361l0.624-0.361l0.623,0.361l0.625-0.361l0.621,0.361l0.623-0.361l0.625,0.361l0.621-0.361
	l0.623,0.361l1.885-1.092C85.882,97.294,106.884,87.206,106.884,87.206z"/>
</svg>
