<?xml version="1.0" encoding="utf-8"?>
<!-- Generator: Adobe Illustrator 16.0.0, SVG Export Plug-In . SVG Version: 6.00 Build 0)  -->
<!DOCTYPE svg PUBLIC "-//W3C//DTD SVG 1.1//EN" "http://www.w3.org/Graphics/SVG/1.1/DTD/svg11.dtd">
<svg version="1.1" id="Layer_3" xmlns="http://www.w3.org/2000/svg" xmlns:xlink="http://www.w3.org/1999/xlink" x="0px" y="0px"
	 width="142.333px" height="142.596px" viewBox="0 0 142.333 142.596" enable-background="new 0 0 142.333 142.596"
	 xml:space="preserve">
<path fill="#FFFFFF" d="M71.298,0C31.921,0,0,31.921,0,71.298s31.921,71.298,71.298,71.298s71.298-31.921,71.298-71.298
	S110.674,0,71.298,0z M98.488,119.596H36.393c0,0,5.422-6.122-9.096-17.666c0,0,8.265,2.361,17.579,11.02
	c0,0,0.131-14.036-18.759-38.306c0,0,20.202,10.758,29.254,32.665l8.396-60.345l-26.237,0.263l2.362-17.535h71.714l-1.925,16.966
	H83.794l-8.048,58.77c0,0,13.121-33.233,32.711-34.982c0,0-20.642,13.818-17.493,39.531c0,0,11.37-12.595,30.087-15.742
	C121.051,94.235,92.016,107.527,98.488,119.596z"/>
</svg>
