<?xml version="1.0" encoding="utf-8"?>
<!-- Generator: Adobe Illustrator 16.0.0, SVG Export Plug-In . SVG Version: 6.00 Build 0)  -->
<!DOCTYPE svg PUBLIC "-//W3C//DTD SVG 1.1//EN" "http://www.w3.org/Graphics/SVG/1.1/DTD/svg11.dtd">
<svg version="1.1" id="Layer_3" xmlns="http://www.w3.org/2000/svg" xmlns:xlink="http://www.w3.org/1999/xlink" x="0px" y="0px"
	 width="142.333px" height="142.596px" viewBox="0 0 142.333 142.596" enable-background="new 0 0 142.333 142.596"
	 xml:space="preserve">
<g>
	<path fill="#FFFFFF" d="M76.569,61.43c-7.914,3.149-9.444,10.477-6.98,16.667c1.683,4.229,5.484,7.163,10.185,5.292
		c8.459-3.368,3.672-15.622,0.82-23.018C79.213,60.558,77.899,60.9,76.569,61.43z"/>
	<path fill="#FFFFFF" d="M38.244,95.616c-0.467-1.375-0.938-2.748-1.398-4.121c-2.086,3.19-10.972,7.09-9.131,11.712
		c0.967,2.43,3.441,2.26,5.557,1.417c1.41-0.561,6.359-3.032,5.143-8.466L38.244,95.616z"/>
	<path fill="#FFFFFF" d="M124.715,76.752c-9.236-11.571-19.006-22.657-28.729-33.855l15.355-6.112l16.623,22.151l0.158-0.063
		l-1.033-28.359l0.463-0.185C114.821,12.908,94.237,1.588,71.004,1.588C32.342,1.588,1,32.929,1,71.592s31.342,70.004,70.004,70.004
		c38.663,0,70.004-31.341,70.004-70.004c0-0.441-0.008-0.881-0.018-1.321L124.715,76.752z M42.625,109.435
		c-0.134-0.483-0.271-0.966-0.41-1.45l-0.18-0.604c-3.435,5.314-8.046,6.579-10.161,7.422c-14.336,5.708-18.61-4.572-18.953-5.433
		C6.338,92.837,35.082,87.293,32.337,80.402c-1.028-2.586-3.989-2.046-6.104-1.203c-5.485,2.184-10.565,6.295-14.909,10.202
		L9.085,79.219c5.628-3.875,11.492-7.389,17.524-9.79c12.377-4.927,18.102-2.397,20.69,4.105
		c0.781,1.959,7.246,22.076,10.366,29.911L42.625,109.435z M91.711,89.896l-1.666-4.874l-0.158,0.063
		c-1.998,5.238-5.637,8.866-11.121,11.05c-10.342,4.117-19.792-1.382-23.722-11.251c-4.491-11.282-3.011-25.576,14.305-32.47
		c2.585-1.029,5.187-1.793,7.818-2.478c-1.449-4.321-3.053-8.584-4.689-12.924l15.432-6.145c2.617,8.398,4.967,16.357,7.805,24.85
		c2.789,8.603,5.813,17.563,10.18,28.531L91.711,89.896z"/>
</g>
</svg>
