<?xml version="1.0" encoding="utf-8"?>
<!-- Generator: Adobe Illustrator 16.0.0, SVG Export Plug-In . SVG Version: 6.00 Build 0)  -->
<!DOCTYPE svg PUBLIC "-//W3C//DTD SVG 1.1//EN" "http://www.w3.org/Graphics/SVG/1.1/DTD/svg11.dtd">
<svg version="1.1" id="Layer_3" xmlns="http://www.w3.org/2000/svg" xmlns:xlink="http://www.w3.org/1999/xlink" x="0px" y="0px"
	 width="142.333px" height="142.596px" viewBox="0 0 142.333 142.596" enable-background="new 0 0 142.333 142.596"
	 xml:space="preserve">
<g>
	<path fill="#53C1B8" d="M89.309,57.611c-8.967,2.511-11.481,10.299-9.516,17.317c1.341,4.794,5.134,8.426,10.463,6.934
		c9.59-2.685,5.797-16.564,3.554-24.936C92.288,56.968,90.818,57.189,89.309,57.611z"/>
	<path fill="#53C1B8" d="M44.682,90.079c-0.347-1.553-0.703-3.101-1.042-4.646c-2.64,3.23-12.752,6.439-11.285,11.682
		c0.771,2.754,3.479,2.854,5.878,2.182c1.598-0.448,7.265-2.563,6.57-8.61L44.682,90.079z"/>
	<path fill="#53C1B8" d="M136.889,80.681c-8.707-13.65-18.048-26.834-27.326-40.136l17.408-4.874l13.48,22.603
		c-5.995-32.923-34.799-57.891-69.453-57.891C31.998,0.383,0.382,32,0.382,71c0,39.001,31.615,70.617,70.616,70.617
		c36.121,0,65.889-27.125,70.092-62.112L136.889,80.681z M47.85,105.608c-0.091-0.541-0.182-1.081-0.281-1.624l-0.124-0.676
		c-4.351,5.381-9.511,6.225-11.906,6.896c-16.25,4.549-19.71-7.123-19.984-8.1C10.31,83.365,42.206,80.657,40.02,72.848
		c-0.821-2.931-4.102-2.688-6.5-2.016c-6.217,1.74-12.215,5.628-17.389,9.372l-1.258-11.33c6.567-3.562,13.35-6.706,20.188-8.621
		c14.029-3.927,19.961-0.514,22.025,6.857c0.622,2.218,5.326,24.843,7.812,33.725L47.85,105.608z M102.485,90.317l-1.25-5.491
		l-0.178,0.051c-2.777,5.464-7.155,8.987-13.37,10.728c-11.723,3.281-21.363-3.792-24.495-14.976
		c-3.58-12.788-0.319-28.161,19.31-33.656c2.93-0.82,5.846-1.349,8.785-1.788c-1.072-4.867-2.328-9.689-3.604-14.6l17.488-4.896
		c1.877,9.435,3.516,18.361,5.617,27.925c2.036,9.677,4.288,19.771,7.77,32.205L102.485,90.317z"/>
</g>
</svg>
