<?xml version="1.0" encoding="utf-8"?>
<!-- Generator: Adobe Illustrator 16.0.0, SVG Export Plug-In . SVG Version: 6.00 Build 0)  -->
<!DOCTYPE svg PUBLIC "-//W3C//DTD SVG 1.1//EN" "http://www.w3.org/Graphics/SVG/1.1/DTD/svg11.dtd">
<svg version="1.1" id="Layer_3" xmlns="http://www.w3.org/2000/svg" xmlns:xlink="http://www.w3.org/1999/xlink" x="0px" y="0px"
	 width="142.333px" height="142.596px" viewBox="0 0 142.333 142.596" enable-background="new 0 0 142.333 142.596"
	 xml:space="preserve">
<path fill="#F6921E" d="M136.627,60.105c6.496,6.496,6.496,17.031,0,23.523l-53.58,53.58c-6.498,6.501-17.028,6.499-23.525,0
	l-53.58-53.58c-6.496-6.496-6.496-17.026,0-23.522l53.58-53.58c6.497-6.493,17.027-6.493,23.525,0L136.627,60.105z"/>
<path fill="#05E535" d="M136.627,60.105c6.496,6.496,6.496,17.031,0,23.523l-53.58,53.58c-6.498,6.501-17.028,6.499-23.525,0
	l-53.58-53.58c-6.496-6.496-6.496-17.026,0-23.522l53.58-53.58c6.497-6.493,17.027-6.493,23.525,0L136.627,60.105z"/>
<polygon opacity="0.5" fill="#FFFFFF" enable-background="new    " points="71.017,6.107 71.017,6.325 71.208,6.217 "/>
<path fill="#FFFFFF" d="M110.409,90.539c-14.529,2.561-23.353,12.822-23.353,12.822c-2.446-20.95,13.579-32.197,13.579-32.197
	c-15.206,1.422-25.393,28.489-25.393,28.489l6.244-47.869h20.094l1.5-13.82H47.418l-1.833,14.283l20.363-0.213l-6.514,49.15
	c-7.028-17.844-22.706-26.607-22.706-26.607c14.662,19.772,14.56,31.206,14.56,31.206c-7.228-7.06-13.644-8.979-13.644-8.979
	c11.266,9.403,7.059,14.387,7.059,14.387h0.026l2.021,1.173l0.668-0.388l0.669,0.388l0.667-0.388l0.669,0.388l0.668-0.388
	l0.668,0.388l0.669-0.388l0.668,0.388l0.668-0.388l0.668,0.388l0.668-0.388l0.67,0.388l0.667-0.388l0.669,0.388l0.67-0.388
	l0.667,0.388l0.67-0.388l0.667,0.388l0.67-0.388l0.667,0.388l0.668-0.388l0.668,0.388l0.667-0.388l0.672,0.388l0.668-0.388
	l0.667,0.388l0.669-0.388l0.669,0.388l0.668-0.388l0.668,0.388l0.668-0.388l0.669,0.388l0.668-0.388l0.669,0.388l0.667-0.388
	l0.672,0.388l0.664-0.388l0.672,0.388l0.667-0.388l0.67,0.388l0.669-0.388l0.671,0.388l0.668-0.388l0.664,0.388l0.67-0.388
	l0.67,0.388l0.67-0.388l0.666,0.388l0.67-0.388l0.67,0.388l0.666-0.388l0.666,0.388l0.67-0.388l0.677,0.388l0.666-0.388l0.659,0.388
	l0.675-0.388l0.67,0.388l0.669-0.388l0.667,0.388l0.671-0.388l0.667,0.388l0.667-0.388l0.67,0.388l0.668-0.388l0.672,0.388
	l2.021-1.173C87.874,101.365,110.409,90.539,110.409,90.539z"/>
<path opacity="0.15" fill="#472E00" enable-background="new    " d="M140.971,75.964l-37.891-38l-1.5,13.82H81.488l-6.245,47.869
	c0,0,10.188-27.067,25.394-28.489c0,0-16.025,11.247-13.579,32.197c0,0,8.822-10.263,23.354-12.822c0,0-22.535,10.826-17.518,20.652
	l-2.021,1.173l-0.672-0.388l-0.666,0.388l-0.671-0.388l-0.667,0.388l-0.667-0.388l-0.671,0.388l-0.667-0.388l-0.669,0.388
	l-0.67-0.388l-0.674,0.388l-0.66-0.388l-0.666,0.388l-0.676-0.388l-0.67,0.388l-0.666-0.388l-0.666,0.388l-0.67-0.388l-0.67,0.388
	l-0.666-0.388l-0.67,0.388l-0.67-0.388l-0.67,0.388l-0.664-0.388l-0.668,0.388l-0.672-0.388l-0.669,0.388l-0.67-0.388l-0.667,0.388
	l-0.672-0.388l-0.664,0.388l-0.672-0.388l-0.667,0.388l-0.669-0.388l-0.668,0.388l-0.669-0.388l-0.668,0.388l-0.668-0.388
	l-0.668,0.388l-0.669-0.388l-0.669,0.388l-0.667-0.388l-0.668,0.388l-0.672-0.388l-0.667,0.388l-0.668-0.388l-0.668,0.388
	l-0.667-0.388l-0.67,0.388l-0.667-0.388l-0.67,0.388l-0.667-0.388l-0.67,0.388l-0.669-0.388l-0.667,0.388l-0.67-0.388l-0.668,0.388
	l-0.668-0.388l-0.668,0.388l-0.668-0.388l-0.669,0.388l-0.668-0.388l-0.668,0.388l-0.669-0.388l-0.667,0.388l-0.669-0.388
	l-0.668,0.388l-1.995-1.156l30.237,30.44c2.95-0.673,5.758-2.142,8.057-4.44l53.58-53.58
	C138.825,81.433,140.258,78.772,140.971,75.964z"/>
<path opacity="0.4" fill="#472E00" enable-background="new    " d="M44.719,111.172"/>
<path fill="#FFFFFF" d="M44.703,111.193h0.026l0.026,0.017l-0.036-0.036C44.709,111.185,44.703,111.193,44.703,111.193z"/>
</svg>
