<?xml version="1.0" encoding="utf-8"?>
<!-- Generator: Adobe Illustrator 16.0.0, SVG Export Plug-In . SVG Version: 6.00 Build 0)  -->
<!DOCTYPE svg PUBLIC "-//W3C//DTD SVG 1.1//EN" "http://www.w3.org/Graphics/SVG/1.1/DTD/svg11.dtd">
<svg version="1.1" id="Layer_3" xmlns="http://www.w3.org/2000/svg" xmlns:xlink="http://www.w3.org/1999/xlink" x="0px" y="0px"
	 width="142.333px" height="142.596px" viewBox="0 0 142.333 142.596" enable-background="new 0 0 142.333 142.596"
	 xml:space="preserve">	
<circle fill="#ffa45a" cx="71" cy="71" r="70.618"/>		<!-- #53C1B8 -->	
<path fill="#FFFFFE" d="M35.06,60.254c-6.837,1.915-13.62,5.059-20.188,8.621l1.258,11.33c5.174-3.744,11.172-7.632,17.389-9.372
	c2.398-0.672,5.68-0.916,6.5,2.016c2.186,7.81-29.71,10.518-24.464,29.256c0.274,0.977,3.733,12.648,19.984,8.1
	c2.395-0.671,7.556-1.515,11.906-6.896l0.124,0.676c0.099,0.543,0.189,1.083,0.281,1.624l17.046-4.771
	c-2.486-8.882-7.19-31.507-7.812-33.725C55.021,59.74,49.089,56.326,35.06,60.254z M44.682,90.079l0.122,0.606
	c0.694,6.048-4.973,8.162-6.57,8.61c-2.398,0.672-5.107,0.572-5.878-2.182C30.888,91.872,41,88.663,43.64,85.433
	C43.979,86.979,44.335,88.527,44.682,90.079z"/>
<path fill="#FFFFFE" d="M87.683,30.584c1.275,4.91,2.531,9.732,3.604,14.6c-2.939,0.439-5.855,0.968-8.785,1.788
	c-19.628,5.495-22.89,20.868-19.31,33.656c3.132,11.184,12.772,18.257,24.495,14.976c6.215-1.74,10.593-5.264,13.37-10.728
	l0.178-0.051l1.25,5.491l16.073-4.499c-3.481-12.435-5.733-22.528-7.77-32.205c-2.102-9.564-3.74-18.49-5.617-27.925L87.683,30.584z
	 M90.256,81.862c-5.329,1.492-9.122-2.14-10.463-6.934c-1.966-7.018,0.549-14.806,9.516-17.317c1.509-0.422,2.979-0.643,4.501-0.686
	C96.053,65.298,99.846,79.177,90.256,81.862z"/>
<path fill="#FFFFFE" d="M162.491,25.728c-2.851,16.504-5.091,33.124-7.13,49.781l-18.472,5.172
	c-8.707-13.65-18.048-26.834-27.326-40.136l17.408-4.874l15.514,26.011l0.178-0.05l2.152-30.957L162.491,25.728z"/>
</svg>
