<?xml version="1.0" encoding="utf-8"?>
<!-- Generator: Adobe Illustrator 16.0.0, SVG Export Plug-In . SVG Version: 6.00 Build 0)  -->
<!DOCTYPE svg PUBLIC "-//W3C//DTD SVG 1.1//EN" "http://www.w3.org/Graphics/SVG/1.1/DTD/svg11.dtd">
<svg version="1.1" id="Layer_3" xmlns="http://www.w3.org/2000/svg" xmlns:xlink="http://www.w3.org/1999/xlink" x="0px" y="0px"
	 width="142.333px" height="142.596px" viewBox="0 0 142.333 142.596" enable-background="new 0 0 142.333 142.596"
	 xml:space="preserve">
<polygon fill="#F79420" points="130.911,105.961 70.644,140.755 10.378,105.961 10.378,36.372 70.644,1.577 130.911,36.372 "/>
<g>
	<polygon opacity="0.5" fill="#FFB04E" enable-background="new    " points="130.911,105.961 130.911,36.372 70.644,1.577 
		70.644,140.755 	"/>
</g>
<path fill="none" d="M70.644,71.629L70.644,71.629L70.644,71.629z"/>
<polygon opacity="0.5" fill="#FFB04E" enable-background="new    " points="70.703,135.196 97.851,119.487 70.67,135.176 "/>
<polygon opacity="0.5" fill="#FFB04E" enable-background="new    " points="70.644,71.629 15.622,102.968 15.623,103.462 
	70.637,135.159 "/>
<polygon opacity="0.5" fill="#FFFFFF" enable-background="new    " points="125.879,40.169 125.697,40.061 125.697,40.273 "/>
<polygon opacity="0.5" fill="#FFFFFF" enable-background="new    " points="125.691,103.418 125.691,103.38 97.851,119.487 "/>
<polygon opacity="0.5" fill="#FFFFFF" enable-background="new    " points="70.637,135.196 70.67,135.176 70.637,135.159 "/>
<polygon opacity="0.5" fill="#FFFFFF" enable-background="new    " points="70.649,8.063 70.649,8.273 70.833,8.169 "/>
<polygon opacity="0.5" fill="#FFB04E" enable-background="new    " points="70.644,71.629 70.637,135.159 70.67,135.176 
	97.851,119.487 125.691,103.38 125.691,103.342 "/>
<polygon opacity="0.1" fill="#FFFFFF" enable-background="new    " points="70.644,71.629 70.637,135.159 70.67,135.176 
	97.851,119.487 125.691,103.38 125.691,103.342 "/>
<path fill="#FFFFFF" d="M107.29,88.74c-14.309,2.521-22.998,12.629-22.998,12.629c-2.409-20.633,13.373-31.71,13.373-31.71
	C82.69,71.061,72.658,97.718,72.658,97.718l6.15-47.144h19.787l1.478-13.61H45.255l-1.805,14.066l20.053-0.21l-6.415,48.405
	c-6.921-17.573-22.361-26.204-22.361-26.204c14.439,19.473,14.339,30.731,14.339,30.731c-7.118-6.951-13.437-8.841-13.437-8.841
	c11.095,9.261,6.952,14.168,6.952,14.168h0.025l1.99,1.154l0.658-0.381l0.659,0.381l0.657-0.381l0.659,0.381l0.658-0.381
	l0.658,0.381l0.659-0.381l0.658,0.381l0.658-0.381l0.658,0.381l0.658-0.381l0.66,0.381l0.657-0.381l0.659,0.381l0.66-0.381
	l0.657,0.381l0.66-0.381l0.657,0.381l0.66-0.381l0.657,0.381l0.658-0.381l0.658,0.381l0.657-0.381l0.662,0.381l0.658-0.381
	l0.657,0.381l0.659-0.381l0.659,0.381l0.658-0.381l0.658,0.381l0.658-0.381l0.659,0.381l0.658-0.381l0.659,0.381l0.657-0.381
	l0.662,0.381l0.654-0.381l0.662,0.381l0.657-0.381l0.66,0.381l0.659-0.381l0.66,0.381l0.658-0.381l0.654,0.381l0.659-0.381
	l0.66,0.381l0.659-0.381l0.656,0.381l0.66-0.381l0.659,0.381l0.656-0.381l0.656,0.381l0.659-0.381l0.666,0.381l0.655-0.381
	l0.65,0.381l0.664-0.381l0.659,0.381l0.659-0.381l0.656,0.381l0.661-0.381l0.657,0.381l0.656-0.381l0.66,0.381l0.656-0.381
	l0.662,0.381l1.989-1.154C85.097,99.403,107.29,88.74,107.29,88.74z"/>
<path opacity="0.4" fill="#472E00" d="M100.073,36.964l-1.478,13.61H78.808l-6.15,47.144c0,0,10.032-26.657,25.007-28.059
	c0,0-15.782,11.077-13.373,31.71c0,0,8.689-10.107,22.998-12.629c0,0-22.192,10.662-17.251,20.34l-1.989,1.154l-0.662-0.381
	l-0.656,0.381l-0.66-0.381l-0.656,0.381l-0.657-0.381l-0.661,0.381l-0.656-0.381l-0.659,0.381l-0.659-0.381l-0.664,0.381
	l-0.65-0.381l-0.655,0.381l-0.666-0.381l-0.659,0.381l-0.656-0.381l-0.656,0.381l-0.659-0.381l-0.66,0.381l-0.656-0.381
	l-0.659,0.381l-0.66-0.381l-0.659,0.381l-0.654-0.381l-0.658,0.381l-0.66-0.381l-0.659,0.381l-0.66-0.381l-0.657,0.381l-0.662-0.381
	l-0.654,0.381l-0.662-0.381l-0.657,0.381l-0.659-0.381l-0.658,0.381l-0.659-0.381l-0.658,0.381l-0.658-0.381l-0.658,0.381
	l-0.659-0.381l-0.659,0.381l-0.657-0.381l-0.658,0.381l-0.662-0.381l-0.657,0.381l-0.658-0.381l-0.658,0.381l-0.657-0.381
	l-0.66,0.381l-0.657-0.381l-0.66,0.381l-0.657-0.381l-0.66,0.381l-0.659-0.381l-0.657,0.381l-0.66-0.381l-0.658,0.381l-0.658-0.381
	l-0.658,0.381l-0.658-0.381l-0.659,0.381l-0.658-0.381l-0.658,0.381l-0.659-0.381l-0.657,0.381l-0.659-0.381l-0.658,0.381
	l-1.965-1.139l84.602,52.109c5.43,5.514,14.229,5.514,19.66,0l44.771-45.452c5.429-5.507,5.429-14.445,0-19.955"/>
</svg>
