<?xml version="1.0" encoding="utf-8"?>
<!-- Generator: Adobe Illustrator 16.0.0, SVG Export Plug-In . SVG Version: 6.00 Build 0)  -->
<!DOCTYPE svg PUBLIC "-//W3C//DTD SVG 1.1//EN" "http://www.w3.org/Graphics/SVG/1.1/DTD/svg11.dtd">
<svg version="1.1" id="Layer_3" xmlns="http://www.w3.org/2000/svg" xmlns:xlink="http://www.w3.org/1999/xlink" x="0px" y="0px"
	 width="142.333px" height="142.596px" viewBox="0 0 142.333 142.596" enable-background="new 0 0 142.333 142.596"
	 xml:space="preserve">
<path fill="#F6921E" d="M136.628,60.105c6.495,6.496,6.495,17.031,0,23.523l-53.581,53.58c-6.497,6.501-17.028,6.499-23.525,0
	l-53.58-53.58c-6.496-6.496-6.496-17.026,0-23.522l53.58-53.58c6.497-6.495,17.028-6.495,23.525,0L136.628,60.105z"/>
<polygon opacity="0.5" fill="#FFFFFF" points="71.017,6.107 71.017,6.325 71.208,6.217 "/>
<path fill="#FFFFFF" d="M110.409,90.539C95.88,93.1,87.056,103.363,87.056,103.363c-2.446-20.952,13.579-32.199,13.579-32.199
	c-15.206,1.422-25.393,28.491-25.393,28.491l6.246-47.871h20.092l1.5-13.82H47.418l-1.833,14.283l20.363-0.213l-6.514,49.152
	c-7.028-17.844-22.706-26.609-22.706-26.609c14.662,19.774,14.56,31.206,14.56,31.206c-7.228-7.058-13.644-8.977-13.644-8.977
	c11.266,9.403,7.059,14.387,7.059,14.387h0.026l2.021,1.171l0.668-0.386l0.669,0.386l0.667-0.386l0.669,0.386l0.668-0.386
	l0.668,0.386l0.669-0.386l0.668,0.386l0.668-0.386l0.668,0.386l0.668-0.386l0.67,0.386l0.667-0.386l0.669,0.386l0.67-0.386
	l0.667,0.386l0.67-0.386l0.667,0.386l0.67-0.386l0.667,0.386l0.668-0.386l0.668,0.386l0.667-0.386l0.672,0.386l0.668-0.386
	l0.667,0.386l0.669-0.386l0.669,0.386l0.668-0.386l0.668,0.386l0.668-0.386l0.669,0.386l0.668-0.386l0.669,0.386l0.667-0.386
	l0.672,0.386l0.664-0.386l0.672,0.386l0.667-0.386l0.67,0.386l0.669-0.386l0.67,0.386l0.669-0.386l0.664,0.386l0.669-0.386
	l0.671,0.386l0.669-0.386l0.666,0.386l0.67-0.386l0.67,0.386l0.667-0.386l0.666,0.386l0.669-0.386l0.676,0.386l0.666-0.386
	l0.661,0.386l0.673-0.386l0.67,0.386l0.669-0.386l0.667,0.386l0.671-0.386l0.667,0.386l0.667-0.386l0.67,0.386l0.667-0.386
	l0.672,0.386l2.02-1.171C87.873,101.365,110.409,90.539,110.409,90.539z"/>
</svg>
