<?xml version="1.0" encoding="utf-8"?>
<!-- Generator: Adobe Illustrator 16.0.0, SVG Export Plug-In . SVG Version: 6.00 Build 0)  -->
<!DOCTYPE svg PUBLIC "-//W3C//DTD SVG 1.1//EN" "http://www.w3.org/Graphics/SVG/1.1/DTD/svg11.dtd">
<svg version="1.1" id="Layer_3" xmlns="http://www.w3.org/2000/svg" xmlns:xlink="http://www.w3.org/1999/xlink" x="0px" y="0px"
	 width="142.333px" height="142.596px" viewBox="0 0 142.333 142.596" enable-background="new 0 0 142.333 142.596"
	 xml:space="preserve">
<path fill="#F6921E"  fill-rule="evenodd" clip-rule="evenodd" d="M131.338,57.373c-0.945-1.229-2.289-2.044-3.699-2.779
	c-2.511-1.309-5.224-2.166-8.048-2.753c-3.321-0.69-6.667-1.252-10.038-1.689c-1.488-0.193-2.986-0.31-4.483-0.45
	c-0.369-0.036-0.457,0.044-0.351,0.354c0.292,0.849,0.626,1.686,0.929,2.532c0.283,0.792,0.563,1.586,0.811,2.389
	c0.073,0.25,0.051,0.53,0.032,0.795c-0.013,0.154-0.088,0.315-0.177,0.452c-0.157,0.246-0.271,0.255-0.551,0.122
	c-2.573-1.23-5.315-1.886-8.25-1.863c-0.803,0.006-1.598,0.108-2.372,0.313c-1.491,0.395-2.469,1.234-2.867,2.582
	c-0.042,0.139-0.089,0.277-0.145,0.443c-0.854-0.959-2.031-1.427-3.269-1.785c-0.717-0.208-1.453-0.371-2.192-0.501
	c-2.709-0.475-5.435-0.483-8.166-0.208c-2.852,0.284-5.622,0.843-8.276,1.806c-1.691,0.612-3.3,1.347-4.63,2.484
	c-0.653,0.559-1.192,1.192-1.308,2.021c-0.035,0.243,0.015,0.496,0.04,0.745c0.015,0.135,0.06,0.269,0.08,0.405
	c0.035,0.229-0.072,0.389-0.297,0.5c-0.425,0.213-0.847,0.432-1.297,0.66c0.022-0.187,0.064-0.374,0.061-0.561
	c-0.013-0.656-0.036-1.311-0.067-1.967c-0.029-0.686-0.119-1.374-0.109-2.06c0.025-1.621-0.33-3.184-0.818-4.732
	c-0.388-1.23-0.771-2.46-1.159-3.69c-0.09-0.286-0.253-0.369-0.539-0.214c-0.276,0.149-0.54,0.335-0.759,0.545
	c-1.042,0.996-1.841,2.148-2.677,3.28c-1.368,1.858-2.57,3.797-3.577,5.832c-0.032,0.065-0.071,0.127-0.099,0.177
	c-0.662-0.162-1.303-0.349-1.954-0.474c-1.977-0.377-3.964-0.37-5.956-0.113c-0.082,0.012-0.17,0.008-0.243,0.033
	c-0.514,0.18-0.889-0.003-1.302-0.286c-1.631-1.118-3.318-2.17-5.131-3.045c-0.335-0.161-0.693-0.29-1.045-0.416
	c-0.208-0.075-0.398-0.081-0.591,0.099c-0.157,0.145-0.415,0.2-0.609,0.315c-1.157,0.673-2.179,1.493-3.182,2.331
	c-3.515,2.946-6.769,6.104-9.691,9.525c-0.719,0.845-1.422,1.704-1.914,2.681c-0.018,0.035-0.045,0.07-0.076,0.096
	c-1.589,1.358-2.817,2.969-4.053,4.572c-1.718,2.222-3.322,4.51-4.659,6.93c-0.214,0.386-0.373,0.791-0.567,1.187
	c-0.04,0.076-0.117,0.164-0.201,0.199c-2.425,0.961-4.757,2.07-6.968,3.385c-0.202,0.121-0.501,0.111-0.759,0.163
	c-1.207,0.241-2.414,0.479-3.619,0.729C0.363,88.509,0.185,88.596,0,88.66c0,0.048,0,0.1,0,0.147
	c0.148,0.025,0.299,0.081,0.444,0.067c1.819-0.15,3.603-0.476,5.353-0.932c0.216-0.055,0.508-0.059,0.543-0.357
	c0.003-0.028,0.086-0.051,0.135-0.07c1.895-0.8,3.737-1.685,5.496-2.7c1.343-0.417,1.998-1.491,2.785-2.4
	c2.541-2.938,4.783-6.053,6.668-9.359c0.199-0.357,0.356-0.727,0.538-1.09c0.032-0.061,0.069-0.141,0.131-0.17
	c1.107-0.535,2.044-1.273,2.962-2.023c3.96-3.238,7.583-6.753,10.801-10.587c0.278-0.331,0.54-0.674,0.788-1.021
	c0.242-0.34,0.459-0.694,0.676-1.023c0.738,0.604,1.462,1.224,2.224,1.811c0.758,0.582,1.549,1.13,2.342,1.707
	c-0.024,0.013-0.047,0.033-0.076,0.041c-2.144,0.619-3.964,1.724-5.681,2.985c-3.351,2.463-6.285,5.263-8.633,8.526
	c-0.948,1.321-1.763,2.7-2.184,4.236c-0.179,0.649-0.267,1.309-0.128,1.974c0.216,1.048,0.95,1.7,2.038,2.073
	c1.109,0.376,2.272,0.45,3.443,0.414c3.214-0.096,6.284-0.81,9.291-1.754c1.622-0.505,3.2-1.126,4.794-1.691
	c0.068-0.025,0.133-0.051,0.257-0.096c-0.047,0.115-0.076,0.191-0.109,0.27c-1,2.395-2.012,4.782-2.991,7.184
	c-0.151,0.383-0.333,0.665-0.731,0.891c-0.814,0.459-1.371,1.153-1.867,1.876c-0.376,0.554-0.719,1.126-1.096,1.679
	c-0.08,0.122-0.22,0.237-0.364,0.299c-1.571,0.646-2.996,1.472-4.124,2.658c-0.132,0.142-0.258,0.288-0.385,0.434
	c0.008,0.022,0.015,0.049,0.024,0.073c0.288-0.038,0.585-0.047,0.861-0.118c1.093-0.28,2.002-0.852,2.835-1.511
	c0.564-0.444,1.065-0.951,1.6-1.425c0.22-0.195,0.46-0.372,0.687-0.559c1.003-0.823,1.707-1.845,2.406-2.873
	c1.596-2.344,2.79-4.866,4.098-7.341c0.391-0.736,0.758-1.488,1.152-2.224c0.078-0.139,0.217-0.277,0.368-0.354
	c0.833-0.437,1.673-0.858,2.517-1.278c0.76-0.38,1.42-0.865,2.012-1.438c0.75-0.717,1.51-1.427,2.288-2.119
	c0.307-0.273,0.651-0.524,1.019-0.73c0.614-0.348,1.128-0.312,1.631,0.154c0.38,0.354,0.721,0.756,0.997,1.178
	c0.439,0.688,0.807,1.411,1.213,2.115c0.042,0.071,0.143,0.158,0.22,0.164c1.211,0.051,2.425,0.08,3.624-0.139
	c0.952-0.17,1.765-0.562,2.399-1.215c0.396-0.404,0.757-0.829,1.135-1.246c0.055-0.062,0.109-0.121,0.233-0.176
	c0.051,0.5,0.125,1.001,0.154,1.506c0.108,2.016-0.036,4.027-0.254,6.036c-0.217,1.97-0.442,3.943-0.691,5.914
	c-0.048,0.379-0.243,0.745-0.355,1.118c-0.569,1.915-1.123,3.831-1.703,5.743c-0.354,1.164-0.791,2.306-1.114,3.475
	c-0.598,2.183-1.141,4.378-1.695,6.569c-0.053,0.206-0.027,0.432-0.037,0.646c0.074,0,0.146,0,0.219,0
	c0.201-0.482,0.441-0.958,0.598-1.452c0.6-1.951,1.162-3.905,1.758-5.856c0.346-1.132,0.767-2.244,1.088-3.382
	c0.561-1.982,1.067-3.976,1.601-5.965c0.018-0.07,0.039-0.145,0.088-0.202c0.88-1.025,1.316-2.228,1.695-3.442
	c0.551-1.758,0.885-3.552,1.109-5.364c0.149-1.231,0.246-2.469,0.389-3.696c0.127-1.112,0.478-2.168,1.036-3.172
	c-0.083,0.365-0.173,0.73-0.25,1.097c-0.401,2.027-0.734,4.055-0.682,6.125c0.012,0.456-0.093,0.916-0.12,1.379
	c-0.122,2.024-0.077,4.046,0.239,6.055c0.075,0.477,0.098,0.942,0.069,1.421c-0.063,0.987-0.018,1.974,0.194,2.947
	c0.022,0.112,0.051,0.229,0.109,0.324c0.041,0.068,0.135,0.139,0.212,0.148c0.052,0.007,0.154-0.093,0.17-0.157
	c0.064-0.299,0.157-0.608,0.148-0.907c-0.022-0.97-0.084-1.938-0.129-2.908c-0.003-0.048-0.013-0.097-0.003-0.145
	c0.271-1.389,0.257-2.79,0.222-4.188c-0.035-1.327-0.097-2.651-0.386-3.963c-0.016-0.067,0-0.145,0.02-0.212
	c0.53-1.651,0.813-3.353,0.999-5.06c0.097-0.875,0.129-1.757,0.158-2.639c0.009-0.225-0.1-0.452-0.145-0.681
	c-0.014-0.052-0.01-0.125,0.021-0.168c0.325-0.44,0.653-0.877,0.987-1.312c0.045-0.054,0.122-0.1,0.192-0.125
	c1.356-0.467,2.713-0.939,4.076-1.392c0.578-0.191,1.176-0.342,1.765-0.507c0.048-0.013,0.105-0.001,0.132-0.001
	c-0.303,0.814-0.637,1.618-0.904,2.439c-0.501,1.531-0.79,3.092-0.697,4.694c0.039,0.618,0.154,1.223,0.435,1.795
	c0.354,0.699,0.968,1.047,1.818,1.079c1.119,0.048,2.112-0.309,3.073-0.755c1.69-0.787,3.166-1.842,4.583-2.965
	c1.965-1.556,3.764-3.254,5.503-5.003c0.058-0.06,0.122-0.118,0.199-0.192c0.106,0.566,0.192,1.115,0.318,1.655
	c0.633,2.717,1.43,5.393,2.57,7.984c0.053,0.121,0.091,0.257,0.177,0.354c0.276,0.318,0.213,0.633,0.104,0.992
	c-0.254,0.82-0.396,1.662-0.36,2.521c0.004,0.071,0,0.151,0.033,0.212c0.038,0.074,0.102,0.161,0.177,0.184
	c0.047,0.016,0.173-0.062,0.202-0.122c0.115-0.254,0.247-0.511,0.302-0.778c0.136-0.633,0.299-1.272,0.317-1.915
	c0.02-0.646-0.08-1.306-0.204-1.944c-0.595-3.016-1.486-5.965-2.717-8.827c-0.087-0.197-0.167-0.398-0.292-0.574
	c-0.138-0.198-0.122-0.337,0.122-0.471c0.025,0.06,0.051,0.113,0.074,0.168c0.552,1.49,1.353,2.879,2.23,4.232
	c1.655,2.546,3.475,5,5.579,7.275c0.29,0.312,0.633,0.581,0.947,0.871c0.075,0.07,0.14,0.15,0.19,0.234
	c0.732,1.247,1.103,2.597,1.379,3.97c0.296,1.462,0.694,2.911,1.495,4.216c0.72,1.177,1.574,2.296,2.751,3.17
	c0.261,0.193,0.571,0.354,0.89,0.456c1.131,0.373,2.308,0.598,3.507,0.704c0.138,0.01,0.286-0.055,0.428-0.08
	c-0.115-0.088-0.219-0.226-0.348-0.254c-1.041-0.229-2.085-0.451-3.134-0.646c-0.254-0.045-0.392-0.097-0.5-0.331
	c-0.374-0.794-1-1.443-1.675-2.051c-0.286-0.254-0.631-0.462-0.942-0.697c-0.058-0.048-0.109-0.122-0.122-0.189
	c-0.521-2.932-1.523-5.722-3.05-8.359c-0.226-0.39-0.373-0.804-0.595-1.192c-0.653-1.148-1.251-2.324-1.999-3.42
	c-1.783-2.596-3.639-5.155-5.472-7.724c-0.234-0.327-0.504-0.64-0.806-0.919c-0.54-0.502-1.192-0.872-2-0.868
	c-0.407,0.002-0.835,0.1-1.218,0.229c-1.481,0.5-2.947,1.032-4.419,1.547c-0.338,0.119-0.682,0.221-1.084,0.351
	c0.21-0.723-0.073-1.318-0.343-1.922c-0.257-0.567-0.235-0.581,0.404-0.809c1.39-0.494,2.751-1.033,4.034-1.72
	c0.884-0.474,1.723-1.003,2.414-1.754c0.058,0.272,0.1,0.512,0.157,0.75c0.414,1.691,1.417,3.094,2.758,4.311
	c2.075,1.886,4.496,3.339,7.254,4.324c0.752,0.269,1.542,0.398,2.356,0.232c0.201-0.041,0.411-0.1,0.584-0.194
	c0.234-0.127,0.46-0.13,0.673-0.014c0.549,0.299,1.115,0.583,1.622,0.934c1.009,0.707,1.977,1.458,2.97,2.181
	c0.276,0.199,0.563,0.39,0.865,0.553c0.424,0.229,0.813,0.105,0.887-0.324c0.084-0.467,0.119-0.955,0.061-1.422
	c-0.234-1.913-0.755-3.771-1.459-5.587c-0.066-0.171-0.208-0.34-0.366-0.461c-0.711-0.541-1.076-1.246-1.209-2.039
	c-0.146-0.881-0.222-1.769-0.334-2.653c-0.038-0.296-0.096-0.591-0.146-0.929c0.438-0.086,0.883-0.195,1.336-0.259
	c1.375-0.197,2.754-0.378,4.13-0.563c0.853-0.113,1.64,0.086,2.424,0.353c2.253,0.768,4.503,1.538,6.769,2.276
	c0.797,0.262,1.633,0.449,2.459,0.636c0.495,0.113,0.521,0.077,0.794-0.304c0.109-0.152,0.177-0.354,0.467-0.301
	c0.012-0.019,0.021-0.036,0.031-0.056c-0.031-0.009-0.068-0.018-0.1-0.029c-2.825-1.024-5.676-1.984-8.648-2.625
	c-0.752-0.16-1.495-0.348-2.244-0.52c-0.077-0.018-0.161-0.026-0.24-0.022c-1.833,0.063-3.665,0.11-5.493,0.201
	c-0.669,0.034-1.331,0.167-1.978,0.252c-0.237-0.36-0.484-0.726-0.722-1.094c-0.021-0.03-0.03-0.08-0.018-0.11
	c0.31-0.664,0.155-1.344,0.053-2.012c-0.252-1.596-0.698-3.154-1.248-4.69c-0.016-0.046-0.028-0.094-0.051-0.166
	c0.379,0.066,0.735,0.146,1.099,0.189c1.427,0.168,2.854,0.333,4.285,0.481c3.005,0.313,6.016,0.594,8.928,1.356
	c3.719,0.972,7.148,2.451,10.147,4.664c0.157,0.117,0.308,0.293,0.565,0.2C131.338,57.503,131.338,57.438,131.338,57.373z
	 M54.884,61.317c1.133-2.44,2.87-4.713,4.35-7.113c0.022,0.039,0.022,0.068,0.022,0.098c-0.088,1.9-0.187,3.8-0.262,5.701
	c-0.08,2.015-0.157,4.029-0.552,6.02c-0.134,0.693-0.293,1.386-0.706,2.001c-0.315,0.469-0.708,0.515-1.171,0.165
	c-0.128-0.098-0.157-0.18-0.098-0.332c0.175-0.448,0.36-0.9,0.472-1.365c0.348-1.46,0.142-2.836-0.933-4.042
	C55.668,62.072,55.289,61.722,54.884,61.317z"/>
<g>
	<path fill="#F6921E" d="M70.789,137.371c-36.669,0-66.502-29.832-66.502-66.501S34.119,4.369,70.789,4.369c36.669,0,66.501,29.833,66.501,66.501
		S107.458,137.371,70.789,137.371z M70.789,7.369c-35.015,0-63.502,28.487-63.502,63.501s28.487,63.501,63.502,63.501
		c35.015,0,63.501-28.486,63.501-63.501S105.803,7.369,70.789,7.369z"/>
</g>
</svg>
