<?xml version="1.0" encoding="utf-8"?>
<!-- Generator: Adobe Illustrator 16.0.0, SVG Export Plug-In . SVG Version: 6.00 Build 0)  -->
<!DOCTYPE svg PUBLIC "-//W3C//DTD SVG 1.1//EN" "http://www.w3.org/Graphics/SVG/1.1/DTD/svg11.dtd">
<svg version="1.1" id="Layer_3" xmlns="http://www.w3.org/2000/svg" xmlns:xlink="http://www.w3.org/1999/xlink" x="0px" y="0px"
	 width="142.333px" height="142.596px" viewBox="0 0 142.333 142.596" enable-background="new 0 0 142.333 142.596"
	 xml:space="preserve">
<path fill="#F6921E" d="M71.334,1C32.644,1,1.167,32.477,1.167,71.167c0,38.688,31.477,70.167,70.167,70.167
	S141.5,109.856,141.5,71.167C141.5,32.477,110.024,1,71.334,1z M71.334,136.199c-35.859,0-65.034-29.174-65.034-65.032
	c0-35.859,29.174-65.033,65.034-65.033c35.859,0,65.036,29.174,65.036,65.033S107.193,136.199,71.334,136.199z"/>
<g>
	<path fill-rule="evenodd" clip-rule="evenodd" fill="#F6921E" d="M36.728,63.729c-2.551-2.11-5.029-4.165-7.511-6.216
		c-3.114-2.575-6.223-5.155-9.35-7.715c-0.814-0.667-1.557-1.346-1.288-2.527c0.281-1.23,1.267-1.544,2.348-1.753
		c9.638-1.869,19.274-3.749,28.912-5.625c3.314-0.645,6.636-1.256,9.939-1.953c1.05-0.222,1.862-0.035,2.683,0.648
		c5.016,4.177,10.058,8.323,15.09,12.479c0.299,0.246,0.602,0.486,0.971,0.785c0.358-0.206,0.725-0.402,1.075-0.622
		c4.048-2.534,8.104-5.058,12.134-7.621c0.853-0.54,1.667-0.68,2.644-0.417c9.329,2.502,18.664,4.984,28.001,7.459
		c1.036,0.275,1.924,0.671,2.099,1.875c0.174,1.197-0.561,1.829-1.459,2.414c-4.101,2.671-8.181,5.37-12.268,8.061
		c-0.284,0.187-0.556,0.391-0.961,0.678c1.318,1.039,2.556,2.021,3.799,2.994c3.979,3.111,7.951,6.229,11.946,9.319
		c0.796,0.617,1.363,1.314,1.14,2.36c-0.221,1.03-0.979,1.479-1.979,1.71c-5.14,1.194-10.266,2.452-15.412,3.613
		c-0.858,0.193-1.009,0.556-1.005,1.33c0.026,6.023,0.014,12.047,0.016,18.07c0.002,2.223-0.367,2.732-2.49,3.232
		c-12.502,2.938-25.005,5.87-37.514,8.776c-0.532,0.124-1.17,0.07-1.695-0.099c-8.971-2.895-17.932-5.815-26.893-8.742
		c-1.7-0.555-2.046-1.084-2.045-2.898c0.002-4.701-0.024-9.405,0.025-14.105c0.008-0.821-0.29-1.126-1-1.397
		c-4.311-1.65-8.605-3.346-12.901-5.035c-2.021-0.795-2.382-2.271-0.924-3.874C27.428,73.903,32.019,68.886,36.728,63.729z
		 M104.042,85.032c-0.429,0.075-0.806,0.119-1.173,0.205c-5.4,1.267-10.803,2.527-16.196,3.826
		c-0.819,0.196-1.412,0.104-2.106-0.448c-4.65-3.701-9.347-7.345-14.032-11.002c-0.226-0.178-0.488-0.307-0.813-0.507
		c0,11.147,0,22.158,0,33.347c11.521-2.705,22.936-5.385,34.321-8.057C104.042,96.529,104.042,90.823,104.042,85.032z
		 M25.241,48.928c0.436,0.316,0.652,0.456,0.85,0.618c4.463,3.682,8.938,7.352,13.373,11.068c0.623,0.522,1.164,0.574,1.904,0.398
		c7.811-1.853,15.629-3.673,23.445-5.509c2.935-0.689,5.867-1.391,8.948-2.123c-0.405-0.359-0.682-0.619-0.975-0.86
		c-3.893-3.214-7.808-6.402-11.665-9.659c-0.713-0.602-1.343-0.711-2.21-0.539c-7.419,1.474-14.846,2.907-22.27,4.359
		C32.963,47.401,29.287,48.131,25.241,48.928z M72.273,73.613c0.571,0.463,0.923,0.76,1.284,1.043
		c4.039,3.154,8.093,6.292,12.105,9.479c0.624,0.496,1.153,0.576,1.907,0.396c8.451-2.006,16.913-3.971,25.37-5.954
		c2.272-0.533,4.54-1.086,7.004-1.675c-4.741-3.711-9.287-7.281-13.861-10.812c-0.268-0.206-0.8-0.206-1.168-0.122
		c-4.801,1.097-9.596,2.223-14.39,3.349C84.529,70.724,78.536,72.138,72.273,73.613z M27.692,79.785
		c0.183,0.13,0.238,0.188,0.304,0.214c7.142,2.798,14.29,5.582,21.421,8.408c0.642,0.254,0.907-0.021,1.261-0.411
		c3.211-3.531,6.433-7.054,9.648-10.583c1.144-1.254,2.279-2.518,3.444-3.805c-0.208-0.097-0.311-0.156-0.42-0.192
		c-7.436-2.436-14.87-4.879-22.317-7.276c-0.326-0.105-0.912,0.093-1.165,0.355c-1.482,1.535-2.901,3.131-4.34,4.707
		C32.939,74.036,30.352,76.87,27.692,79.785z M65.342,110.237c0-10.766,0-21.359,0-32.155c-0.514,0.562-0.879,0.958-1.243,1.356
		c-3.821,4.186-7.641,8.373-11.466,12.555c-1.183,1.293-1.739,1.425-3.386,0.786c-2.06-0.798-4.11-1.62-6.168-2.424
		c-0.369-0.144-0.755-0.242-1.249-0.397c0,4.147-0.018,8.104,0.038,12.061c0.004,0.286,0.501,0.705,0.85,0.821
		c4.041,1.356,8.096,2.668,12.147,3.988C58.324,107.954,61.784,109.079,65.342,110.237z M117.27,53.751
		c-0.25-0.156-0.337-0.243-0.438-0.27c-7.497-1.994-14.992-3.994-22.501-5.943c-0.443-0.115-1.067,0.05-1.478,0.298
		c-2.622,1.59-5.209,3.238-7.808,4.869c-0.539,0.339-1.074,0.686-1.671,1.065c0.224,0.136,0.316,0.219,0.423,0.253
		c7.15,2.341,14.302,4.683,21.46,6.996c0.319,0.103,0.802,0.066,1.075-0.111C109.95,58.573,113.542,56.199,117.27,53.751z"/>
	<path fill-rule="evenodd" clip-rule="evenodd" fill="#FFFFFF" d="M104.042,85.032c0,5.791,0,11.496,0,17.364
		c-11.385,2.672-22.8,5.352-34.321,8.057c0-11.188,0-22.199,0-33.347c0.325,0.2,0.587,0.329,0.813,0.507
		c4.686,3.657,9.382,7.301,14.032,11.002c0.694,0.553,1.287,0.645,2.106,0.448c5.394-1.299,10.796-2.56,16.196-3.826
		C103.236,85.152,103.613,85.108,104.042,85.032z M73.368,105.777c2.974-0.695,5.722-1.337,8.468-1.983
		c5.847-1.374,11.693-2.745,17.536-4.143c0.352-0.086,0.923-0.382,0.933-0.603c0.08-1.678,0.043-3.36,0.043-5.138
		c-0.532,0.103-0.873,0.157-1.207,0.235c-3.433,0.805-6.865,1.614-10.298,2.418c-4.793,1.122-9.588,2.233-14.375,3.368
		c-0.478,0.113-1.131,0.044-1.11,0.89C73.394,102.406,73.368,103.992,73.368,105.777z"/>
	<path fill-rule="evenodd" clip-rule="evenodd" fill="#FFFFFF" d="M25.241,48.928c4.046-0.797,7.722-1.527,11.399-2.246
		c7.424-1.452,14.85-2.885,22.27-4.359c0.868-0.173,1.498-0.063,2.21,0.539c3.857,3.256,7.772,6.444,11.665,9.659
		c0.293,0.241,0.569,0.501,0.975,0.86c-3.081,0.732-6.013,1.434-8.948,2.123c-7.815,1.835-15.634,3.656-23.445,5.509
		c-0.74,0.176-1.281,0.124-1.904-0.398c-4.435-3.716-8.909-7.386-13.373-11.068C25.894,49.384,25.677,49.244,25.241,48.928z"/>
	<path fill-rule="evenodd" clip-rule="evenodd" fill="#FFFFFF" d="M72.273,73.613c6.263-1.475,12.256-2.889,18.252-4.296
		c4.794-1.125,9.589-2.252,14.39-3.349c0.368-0.084,0.9-0.084,1.168,0.122c4.574,3.531,9.12,7.101,13.861,10.812
		c-2.464,0.589-4.731,1.142-7.004,1.675c-8.457,1.983-16.919,3.948-25.37,5.954c-0.754,0.18-1.283,0.1-1.907-0.396
		c-4.013-3.187-8.066-6.324-12.105-9.479C73.196,74.372,72.844,74.075,72.273,73.613z"/>
	<path fill-rule="evenodd" clip-rule="evenodd" fill="#FFFFFF" d="M27.692,79.785c2.66-2.915,5.247-5.749,7.835-8.583
		c1.439-1.576,2.858-3.172,4.34-4.707c0.253-0.262,0.839-0.46,1.165-0.355c7.448,2.397,14.881,4.84,22.317,7.276
		c0.109,0.036,0.211,0.096,0.42,0.192c-1.165,1.287-2.3,2.551-3.444,3.805c-3.215,3.529-6.437,7.052-9.648,10.583
		c-0.354,0.391-0.62,0.665-1.261,0.411c-7.131-2.826-14.279-5.61-21.421-8.408C27.93,79.973,27.875,79.915,27.692,79.785z"/>
	<path fill-rule="evenodd" clip-rule="evenodd" fill="#FFFFFF" d="M65.342,110.237c-3.559-1.157-7.018-2.282-10.477-3.409
		c-4.051-1.32-8.106-2.632-12.147-3.988c-0.349-0.116-0.846-0.535-0.85-0.821c-0.056-3.956-0.038-7.913-0.038-12.061
		c0.494,0.155,0.88,0.254,1.249,0.397c2.058,0.804,4.108,1.626,6.168,2.424c1.646,0.639,2.203,0.507,3.386-0.786
		c3.825-4.182,7.645-8.369,11.466-12.555c0.364-0.398,0.729-0.795,1.243-1.356C65.342,88.877,65.342,99.471,65.342,110.237z"/>
	<path fill-rule="evenodd" clip-rule="evenodd" fill="#FFFFFF" d="M117.27,53.751c-3.728,2.448-7.32,4.821-10.938,7.157
		c-0.273,0.177-0.756,0.214-1.075,0.111c-7.158-2.313-14.31-4.655-21.46-6.996c-0.106-0.035-0.199-0.117-0.423-0.253
		c0.597-0.379,1.132-0.726,1.671-1.065c2.599-1.631,5.186-3.279,7.808-4.869c0.41-0.248,1.034-0.413,1.478-0.298
		c7.509,1.95,15.004,3.95,22.501,5.943C116.933,53.509,117.02,53.595,117.27,53.751z"/>
	<path fill-rule="evenodd" clip-rule="evenodd" fill="#F6921E" d="M73.368,105.777c0-1.784,0.026-3.37-0.011-4.955
		c-0.021-0.846,0.633-0.776,1.11-0.89c4.787-1.135,9.582-2.246,14.375-3.368c3.433-0.804,6.865-1.613,10.298-2.418
		c0.334-0.078,0.675-0.133,1.207-0.235c0,1.777,0.037,3.46-0.043,5.138c-0.01,0.221-0.581,0.517-0.933,0.603
		c-5.843,1.397-11.689,2.769-17.536,4.143C79.089,104.44,76.341,105.081,73.368,105.777z"/>
</g>
</svg>
