<?xml version="1.0" encoding="utf-8"?>
<!-- Generator: Adobe Illustrator 16.0.0, SVG Export Plug-In . SVG Version: 6.00 Build 0)  -->
<!DOCTYPE svg PUBLIC "-//W3C//DTD SVG 1.1//EN" "http://www.w3.org/Graphics/SVG/1.1/DTD/svg11.dtd">
<svg version="1.1" id="Layer_3" xmlns="http://www.w3.org/2000/svg" xmlns:xlink="http://www.w3.org/1999/xlink" x="0px" y="0px"
	 width="142.333px" height="142.596px" viewBox="0 0 142.333 142.596" enable-background="new 0 0 142.333 142.596"
	 xml:space="preserve">
<path fill="#05E535" d="M71.334,1C32.644,1,1.167,32.477,1.167,71.167c0,38.688,31.477,70.167,70.167,70.167
	S141.5,109.856,141.5,71.167C141.5,32.477,110.024,1,71.334,1z M71.334,136.199c-35.859,0-65.034-29.176-65.034-65.032
	c0-35.859,29.174-65.033,65.034-65.033c35.859,0,65.036,29.174,65.036,65.033C136.37,107.026,107.193,136.199,71.334,136.199z"/>
<path fill-rule="evenodd" clip-rule="evenodd" fill="#05E535" d="M64.498,46.522c-1.026,5.541-3.881,9.4-8.685,11.837
	c-0.826,0.419-1.722,0.703-2.548,1.124c-3.059,1.558-5.11,4.001-5.205,7.463c-0.176,6.439-0.05,12.888-0.05,19.485
	c1.766,0,3.522,0,5.499,0c0-4.789,0-9.605,0-14.638c13.533,0,26.853,0,40.113,0c1.532-5.845-0.775-10.601-6.1-12.791
	c-5.523-2.271-8.839-6.319-10.135-12.459c1.985,0,3.809-0.071,5.617,0.055c0.396,0.027,0.889,0.688,1.092,1.164
	c1.126,2.655,3.038,4.418,5.698,5.507c6.987,2.861,10.427,8.001,10.438,15.584c0.019,13.825,0.01,27.651-0.002,41.478
	c-0.004,4.54-2.59,7.254-7.132,7.268c-14.823,0.045-29.647,0.04-44.471-0.004c-4.224-0.013-6.909-2.646-6.923-6.852
	c-0.049-14.357-0.161-28.718,0.06-43.072c0.104-6.785,3.612-11.667,10.023-14.213c2.873-1.142,4.926-3.028,6.188-5.853
	c0.208-0.468,0.862-0.996,1.347-1.034C60.956,46.443,62.607,46.522,64.498,46.522z M83.823,78.136c-8.46,0-16.732,0-25.04,0
	c0,0.955,0,1.774,0,2.648c8.434,0,16.7,0,25.04,0C83.823,79.86,83.823,79.079,83.823,78.136z M83.84,95.025
	c-8.494,0-16.806,0-25.106,0c0,0.938,0,1.709,0,2.52c8.428,0,16.737,0,25.106,0C83.84,96.641,83.84,95.921,83.84,95.025z
	 M58.754,89.166c8.437,0,16.742,0,25.025,0c0-0.941,0-1.712,0-2.546c-8.425,0-16.728,0-25.025,0
	C58.754,87.573,58.754,88.343,58.754,89.166z M70.86,43.554c-4.448,0-8.897-0.052-13.344,0.03c-1.421,0.026-2.031-0.286-1.987-1.848
	c0.098-3.449,0.08-6.905-0.007-10.355c-0.037-1.458,0.569-1.78,1.892-1.773c9.03,0.048,18.06,0.07,27.09,0.007
	c1.546-0.011,1.941,0.546,1.91,1.965c-0.07,3.318-0.088,6.64-0.004,9.958c0.037,1.514-0.377,2.106-2.007,2.068
	c-4.513-0.104-9.029-0.036-13.543-0.036C70.86,43.565,70.86,43.559,70.86,43.554z M58.733,41.374c1.913,0,3.701,0,5.455,0
	c0-2.798,0-5.413,0-8.124c-1.873,0-3.622,0-5.455,0C58.733,36.002,58.733,38.666,58.733,41.374z"/>
</svg>
