<?xml version="1.0" encoding="utf-8"?>
<!-- Generator: Adobe Illustrator 16.0.0, SVG Export Plug-In . SVG Version: 6.00 Build 0)  -->
<!DOCTYPE svg PUBLIC "-//W3C//DTD SVG 1.1//EN" "http://www.w3.org/Graphics/SVG/1.1/DTD/svg11.dtd">
<svg version="1.1" id="Layer_3" xmlns="http://www.w3.org/2000/svg" xmlns:xlink="http://www.w3.org/1999/xlink" x="0px" y="0px"
	 width="142.333px" height="142.596px" viewBox="0 0 142.333 142.596" enable-background="new 0 0 142.333 142.596"
	 xml:space="preserve">
<path fill="#05E535" d="M71.334,1C32.644,1,1.167,32.477,1.167,71.167c0,38.688,31.477,70.167,70.167,70.167
	S141.5,109.856,141.5,71.167C141.5,32.477,110.024,1,71.334,1z M71.334,136.199c-35.859,0-65.034-29.175-65.034-65.032
	c0-35.859,29.174-65.033,65.034-65.033c35.859,0,65.036,29.174,65.036,65.033C136.37,107.026,107.193,136.199,71.334,136.199z"/>
<path fill="#05E535" d="M125.532,75.992c-3.994-3.091-7.967-6.208-11.945-9.319c-1.244-0.973-2.481-1.955-3.799-2.994
	c0.404-0.287,0.676-0.491,0.961-0.678c4.086-2.691,8.166-5.391,12.268-8.062c0.898-0.585,1.633-1.217,1.459-2.414
	c-0.176-1.203-1.063-1.6-2.1-1.875c-9.336-2.475-18.672-4.957-28-7.459c-0.978-0.263-1.791-0.123-2.645,0.417
	c-4.029,2.563-8.086,5.087-12.134,7.621c-0.351,0.221-0.718,0.416-1.075,0.622c-0.369-0.299-0.672-0.539-0.971-0.785
	c-5.032-4.155-10.074-8.302-15.09-12.479c-0.821-0.683-1.633-0.87-2.683-0.648c-3.303,0.697-6.625,1.309-9.939,1.953
	c-9.638,1.876-19.274,3.756-28.912,5.625c-1.081,0.209-2.067,0.523-2.348,1.753c-0.269,1.182,0.474,1.86,1.288,2.527
	c3.127,2.56,6.236,5.14,9.35,7.715c2.482,2.051,4.96,4.106,7.511,6.216c-4.709,5.157-9.3,10.174-13.873,15.204
	c-1.458,1.604-1.097,3.079,0.924,3.874c4.296,1.689,8.59,3.385,12.901,5.035c0.71,0.271,1.008,0.576,1,1.397
	c-0.049,4.699-0.023,9.403-0.025,14.104c-0.001,1.814,0.345,2.343,2.045,2.898c8.961,2.927,17.922,5.847,26.893,8.741
	c0.525,0.169,1.163,0.224,1.695,0.1c12.509-2.906,25.011-5.838,37.513-8.776c2.123-0.5,2.492-1.009,2.49-3.231
	c-0.002-6.023,0.01-12.048-0.016-18.07c-0.004-0.774,0.146-1.137,1.005-1.33c5.146-1.161,10.272-2.419,15.412-3.613
	c1-0.23,1.759-0.68,1.979-1.71C126.895,77.306,126.329,76.609,125.532,75.992z M85.045,52.705c2.599-1.631,5.186-3.279,7.808-4.869
	c0.308-0.186,0.735-0.325,1.117-0.335c0.128-0.003,0.25,0.008,0.36,0.037c7.51,1.948,15.004,3.948,22.502,5.942
	c0.101,0.027,0.188,0.114,0.438,0.271c-3.729,2.448-7.32,4.822-10.938,7.157c-0.273,0.177-0.756,0.214-1.076,0.11
	c-7.157-2.313-14.31-4.654-21.459-6.996c-0.107-0.033-0.199-0.116-0.424-0.253C83.971,53.391,84.506,53.044,85.045,52.705z
	 M27.995,79.999c-0.065-0.026-0.12-0.084-0.303-0.214c2.66-2.915,5.247-5.749,7.835-8.583c1.439-1.576,2.858-3.172,4.34-4.707
	c0.19-0.197,0.567-0.357,0.882-0.381c0.104-0.008,0.203-0.001,0.284,0.025c7.447,2.397,14.881,4.84,22.317,7.276
	c0.109,0.036,0.212,0.095,0.42,0.191c-1.165,1.287-2.3,2.552-3.444,3.806c-3.215,3.528-6.437,7.052-9.648,10.583
	c-0.177,0.195-0.333,0.361-0.524,0.447c-0.037,0.017-0.084,0.014-0.125,0.024c-0.063,0.016-0.121,0.039-0.194,0.037
	c-0.121-0.004-0.258-0.034-0.419-0.098C42.285,85.581,35.137,82.797,27.995,79.999z M65.342,110.237
	c-3.559-1.156-7.018-2.281-10.477-3.408c-4.051-1.32-8.106-2.633-12.147-3.988c-0.349-0.116-0.846-0.535-0.85-0.821
	c-0.028-1.979-0.038-3.957-0.04-5.959s0.002-4.028,0.002-6.102c0.494,0.154,0.88,0.253,1.249,0.396
	c2.058,0.805,4.108,1.626,6.168,2.424c0.618,0.24,1.082,0.371,1.483,0.374c0.535,0.003,0.959-0.224,1.485-0.728
	c0.132-0.127,0.27-0.27,0.417-0.432c3.825-4.183,7.645-8.369,11.466-12.556c0.364-0.397,0.729-0.795,1.243-1.355
	C65.342,88.878,65.342,99.471,65.342,110.237z M64.812,55.504c-7.815,1.835-15.634,3.656-23.445,5.509
	c-0.74,0.176-1.281,0.124-1.904-0.397c-4.435-3.717-8.909-7.387-13.373-11.068c-0.092-0.077-0.191-0.15-0.314-0.237
	c-0.137-0.098-0.305-0.215-0.535-0.382c1.011-0.199,2-0.395,2.971-0.586c2.913-0.576,5.67-1.121,8.429-1.661
	c7.424-1.452,14.851-2.885,22.27-4.358c0.867-0.173,1.497-0.063,2.21,0.538c3.857,3.258,7.772,6.445,11.665,9.659
	c0.293,0.241,0.57,0.501,0.976,0.86c-0.001,0-0.001,0-0.002,0c0.001,0,0.001,0,0.001,0C70.679,54.113,67.747,54.815,64.812,55.504z
	 M69.722,110.453L69.722,110.453C69.722,110.453,69.722,110.453,69.722,110.453c-0.001-11.188-0.001-22.199-0.001-33.348
	c0,0,0,0,0.001,0.001c0-0.001,0-0.001,0-0.001c0.325,0.2,0.587,0.329,0.813,0.507c4.685,3.657,9.381,7.302,14.032,11.003
	c0.694,0.552,1.287,0.644,2.105,0.447c5.394-1.299,10.795-2.56,16.195-3.826c0.064-0.015,0.133-0.024,0.197-0.037
	c0.307-0.061,0.622-0.105,0.977-0.167c0,5.791,0,11.496,0.002,17.363C92.659,105.068,81.243,107.748,69.722,110.453z M112.94,78.577
	c-8.457,1.982-16.919,3.947-25.37,5.954c-0.188,0.045-0.363,0.073-0.529,0.084c-0.496,0.029-0.91-0.108-1.378-0.48
	c-4.013-3.187-8.066-6.325-12.105-9.479c-0.361-0.283-0.713-0.58-1.284-1.044c1.565-0.369,3.114-0.733,4.65-1.096
	c4.609-1.085,9.104-2.145,13.601-3.2c4.794-1.126,9.589-2.252,14.391-3.349c0.184-0.042,0.408-0.063,0.621-0.048
	s0.413,0.067,0.547,0.17c4.574,3.531,9.121,7.101,13.861,10.812C117.48,77.491,115.213,78.044,112.94,78.577z"/>
</svg>
