<?xml version="1.0" encoding="utf-8"?>
<!-- Generator: Adobe Illustrator 16.0.0, SVG Export Plug-In . SVG Version: 6.00 Build 0)  -->
<!DOCTYPE svg PUBLIC "-//W3C//DTD SVG 1.1//EN" "http://www.w3.org/Graphics/SVG/1.1/DTD/svg11.dtd">
<svg version="1.1" id="Layer_3" xmlns="http://www.w3.org/2000/svg" xmlns:xlink="http://www.w3.org/1999/xlink" x="0px" y="0px"
	 width="142.333px" height="142.596px" viewBox="0 0 142.333 142.596" enable-background="new 0 0 142.333 142.596"
	 xml:space="preserve">
<g>
	<path fill="#F6921E" d="M55.613,64.973c-6.04-13.139-16.523-21.581-29.174-27.762c-1.618-0.791-2.776-0.322-3.363,1.255
		c-0.847,2.278-1.662,4.569-2.468,6.861c-0.409,1.021-0.903,2.369-1.398,3.987c-0.174,0.498-0.348,0.995-0.523,1.492
		c-0.186,0.531-0.285,1.047-0.313,1.55c-1.729,7.073-2.769,17.39,1.323,27.996c7.355,19.073,24.609,21.81,24.609,21.81
		s-0.025-19.687-11.833-41.288c0.379,0.028,0.604,0.001,0.683,0.084c0.509,0.537,1.068,1.058,1.458,1.679
		c3.82,6.067,7.593,12.164,11.42,18.224c0.923,1.462,1.994,2.831,3.147,4.455c2.242-5.556,4.092-10.52,6.266-15.335
		C56.254,68.189,56.416,66.722,55.613,64.973z"/>
	<path fill="#F6921E" d="M120.203,48.905c-0.938-5.023-2.274-9.979-4.093-14.847c-0.349-0.993-0.559-1.537-0.559-1.537
		c-1.337-3.377-2.038-3.65-5.55-2.618c-2.139,0.629-4.26,1.384-6.296,2.291C92.349,37.251,82.22,44.152,73.084,52.57
		c-1.579,1.456-3.04,2.979-4.448,4.535l-0.063,0.018c0,0-0.35,0.396-0.926,1.107C61.85,64.92,57.554,72.492,54.822,80.991
		c-2.193,6.07-3.716,12.959-3.637,20.245c-0.187,6.563,0.817,13.038,3.668,19.352c0.207,0.456,0.68,0.8,1.286,1.187l0.001,0.003
		c0,0,2.34,8.717,10.673,0.054c0.447-0.166,0.9-0.45,1.125-0.798c0.383-0.602,0.757-1.206,1.137-1.808
		c3.935-4.962,8.981-13.367,15.41-27.159c3.751-7.842,7.093-15.884,10.317-23.99c0.036,1.135,0.047,2.306,0.036,3.513
		c-1.723,17.259-6.432,33.717-14.107,49.719c-11.577,15.072,0.802,9.938,0.802,9.938c5.713-1.703,10.668-3.876,14.985-6.412
		c0.043,0.202,0.089,0.409,0.136,0.609c0.053-0.249,0.09-0.503,0.123-0.758c1.335-0.798,2.608-1.631,3.819-2.494
		c0.019,0.04,0.031,0.066,0.05,0.109c0.168-0.162,0.32-0.327,0.484-0.489C126.883,102.982,124.514,69.082,120.203,48.905z"/>
</g>
<g>
	<path fill="#F6921E" d="M71.454,140.537c-38.278,0-69.418-31.141-69.418-69.417S33.176,1.702,71.454,1.702c38.276,0,69.417,31.141,69.417,69.417
		S109.73,140.537,71.454,140.537z M71.454,6.782c-35.477,0-64.338,28.862-64.338,64.337c0,35.476,28.862,64.338,64.338,64.338
		c35.476,0,64.338-28.862,64.338-64.338C135.792,35.644,106.929,6.782,71.454,6.782z"/>
</g>
</svg>
